<?xml version="1.0" encoding="iso-8859-1"?>
<!-- Uploaded to: SVG Repo, www.svgrepo.com, Generator: SVG Repo Mixer Tools -->
<svg height="800px" width="800px" version="1.1" id="Layer_1" xmlns="http://www.w3.org/2000/svg" xmlns:xlink="http://www.w3.org/1999/xlink" 
	 viewBox="0 0 512.001 512.001" xml:space="preserve">
<path style="fill:#651100;" d="M397.5,61.732v81.851c0,5.533-4.484,10.017-10.017,10.017s-10.017-4.484-10.017-10.017V61.732
	c0-22.992-18.567-41.697-41.387-41.697H175.922c-22.821,0-41.387,18.705-41.387,41.697v81.851c0,5.533-4.484,10.017-10.017,10.017
	c-5.533,0-10.017-4.484-10.017-10.017V61.732c0-34.039,27.553-61.732,61.422-61.732h160.157
	C369.947,0.001,397.5,27.693,397.5,61.732z"/>
<path style="fill:#DC2C13;" d="M72.288,125.69h367.426c39.755,0,72.288,32.725,72.288,72.723v240.865
	c-0.001,39.997-32.534,72.723-72.289,72.723H72.288C32.533,512.001,0,479.275,0,439.278V198.413
	C0,158.414,32.533,125.69,72.288,125.69L72.288,125.69z"/>
<path style="fill:#B21100;" d="M512,318.845v120.432c0,39.998-32.533,72.723-72.288,72.723H72.288
	C32.533,512.001,0,479.276,0,439.278V318.845H512z"/>
<path style="fill:#F9EC86;" d="M163.779,279.978h53.587v-53.906c0-8.103,6.59-14.732,14.644-14.732h47.978
	c8.057,0,14.644,6.629,14.644,14.732v53.906h53.587c8.052,0,14.639,6.629,14.639,14.734v48.267c0,8.104-6.587,14.734-14.639,14.734
	h-53.586v53.906c0,8.103-6.587,14.732-14.644,14.732h-47.978c-8.055,0-14.644-6.629-14.644-14.732v-53.906H163.78
	c-8.052,0-14.644-6.629-14.644-14.734v-48.267C149.134,286.607,155.727,279.978,163.779,279.978L163.779,279.978z"/>
<path style="fill:#FFE252;" d="M362.863,318.845v24.133c0,8.104-6.587,14.734-14.639,14.734h-53.587v53.906
	c0,8.103-6.587,14.732-14.644,14.732h-47.979c-8.055,0-14.644-6.629-14.644-14.732v-53.906h-53.587
	c-8.052,0-14.644-6.629-14.644-14.734v-24.133H362.863z"/>
</svg>